<?xml version="1.0" standalone="no"?>
<!DOCTYPE svg PUBLIC "-//W3C//DTD SVG 1.1//EN" "http://www.w3.org/Graphics/SVG/1.1/DTD/svg11.dtd" >
<svg xmlns="http://www.w3.org/2000/svg" xmlns:xlink="http://www.w3.org/1999/xlink" version="1.1">
<metadata>
Created by FontForge 20141024 at Tue Jan  5 22:36:00 2016
 By Jimmy Warting
Generated by Fontographer 3.3
</metadata>
<defs>
<font id="TropicanaPlain" horiz-adv-x="222" >
  <font-face 
    font-family="Tropicana"
    font-weight="5"
    font-stretch="normal"
    units-per-em="1000"
    panose-1="0 0 0 0 0 0 0 0 0 0"
    ascent="800"
    descent="-200"
    x-height="800"
    cap-height="800"
    bbox="10 -114 886 884"
    underline-thickness="20"
    underline-position="-123"
    unicode-range="U+0020-201D"
  />
<missing-glyph horiz-adv-x="800" 
d="M50 0v800h700v-800h-700zM700 50v700h-600v-700h600z" />
    <glyph glyph-name=".notdef" horiz-adv-x="800" 
d="M50 0v800h700v-800h-700zM700 50v700h-600v-700h600z" />
    <glyph glyph-name=".null" unicode="&#xd7;" horiz-adv-x="0" 
 />
    <glyph glyph-name=".null" unicode="&#xfd;" horiz-adv-x="0" 
 />
    <glyph glyph-name="nonmarkingreturn" horiz-adv-x="500" 
 />
    <glyph glyph-name="space" unicode=" " horiz-adv-x="500" 
 />
    <glyph glyph-name="space" unicode="&#xa0;" horiz-adv-x="500" 
 />
    <glyph glyph-name="exclam" unicode="!" horiz-adv-x="228" 
d="M218 800l-23 -509h-122l-63 472zM194 228l-37 -222l-83 -6l-55 204z" />
    <glyph glyph-name="quotedbl" unicode="&#x22;" horiz-adv-x="450" 
d="M36 773l172 -24l-113 -269l-5 132l-58 31zM252 767l172 -24l-113 -269l-5 132l-58 31z" />
    <glyph glyph-name="dollar" unicode="$" horiz-adv-x="405" 
d="M247 800l18 -100l81 -13l40 -135l-49 -31l-49 72l-72 -5l-32 -63l194 -256l-113 -152v-108l-58 -9l-31 112l-112 44l-1 104l157 -36l41 77l-243 157l36 170l122 77l11 95h60z" />
    <glyph glyph-name="ampersand" unicode="&#x26;" horiz-adv-x="570" 
d="M330 789l96 -181l-147 -163l119 -149l22 42l-11 107l73 6l62 -169l-69 -113l58 -124l-124 -39l-56 56l-62 -62h-113l-152 270l118 194l-79 144l147 192zM268 569l-28 62l-62 -39l34 -85zM167 282l22 -90l124 -17l-101 202z" />
    <glyph glyph-name="quotesingle" unicode="'" 
d="M30 773l172 -24l-113 -269l-5 132l-58 31z" />
    <glyph glyph-name="parenleft" unicode="(" horiz-adv-x="348" 
d="M293 792l-139 -363l158 -422l-58 -85l-229 522l202 440z" />
    <glyph glyph-name="parenright" unicode=")" horiz-adv-x="348" 
d="M61 786l66 92l202 -440l-229 -522l-58 85l158 422z" />
    <glyph glyph-name="comma" unicode="," 
d="M42 179l172 -24l-113 -269l-5 132l-58 31z" />
    <glyph glyph-name="period" unicode="." 
d="M48 179h148l-41 -179l-87 31z" />
    <glyph glyph-name="zero" unicode="0" horiz-adv-x="561" 
d="M365 800l170 -263l-115 -532l-241 -5l-154 521l137 257zM267 504l-61 -175l77 -225l66 225z" />
    <glyph glyph-name="one" unicode="1" horiz-adv-x="310" 
d="M59 501l-45 147l282 152l-45 -800l-102 11l-11 524z" />
    <glyph glyph-name="two" unicode="2" horiz-adv-x="507" 
d="M466 113v-113l-434 41l168 332l40 250l-205 -35l-12 107l339 105l122 -138l-52 -279l-186 -218z" />
    <glyph glyph-name="three" unicode="3" horiz-adv-x="511" 
d="M170 642l-118 -64l-29 46l130 176h194l141 -200l-207 -196l136 -222l-147 -182l-147 12l-58 157l64 13l85 -62l74 80l-118 159l-11 82l105 147z" />
    <glyph glyph-name="four" unicode="4" horiz-adv-x="580" 
d="M311 776l-125 -343l30 -77l89 17l-6 303l142 11l-24 -308l113 12l24 -118l-131 -36l-11 -231l-77 -6l-24 243l-178 -36l-107 237l237 356z" />
    <glyph glyph-name="five" unicode="5" horiz-adv-x="528" 
d="M439 717l-219 -53l-12 -131l142 18l154 -201l-249 -350l-195 249l59 24l136 -119l95 125l-95 148l-112 -66l-83 18l-36 308l77 113l332 -18z" />
    <glyph glyph-name="six" unicode="6" horiz-adv-x="558" 
d="M467 639l-107 -72l-60 66l-101 -108l35 -83l191 48l108 -126l-173 -364l-156 18l-179 543l215 239zM294 322l-48 -107l54 -143l66 101z" />
    <glyph glyph-name="seven" unicode="7" horiz-adv-x="557" 
d="M384 800l148 -159l-247 -641l-142 13l135 583h-253v146z" />
    <glyph glyph-name="eight" unicode="8" horiz-adv-x="498" 
d="M370 800l88 -100l-109 -276l127 -106l-159 -312l-112 -6l-153 324l94 88l-123 235l64 140zM229 594l-42 -76l65 -83l41 89zM246 265l-47 -83l59 -94l47 106z" />
    <glyph glyph-name="nine" unicode="9" horiz-adv-x="517" 
d="M105 211l151 -121l46 235l-110 -24l-169 366l140 133l214 -6l116 -203l-185 -591l-272 102zM250 580l-41 -76l64 -81l40 87z" />
    <glyph glyph-name="colon" unicode=":" 
d="M42 425h148l-41 -179l-87 31zM42 203h148l-41 -179l-87 31z" />
    <glyph glyph-name="semicolon" unicode=";" 
d="M42 179l172 -24l-113 -269l-5 132l-58 31zM42 425h148l-41 -179l-87 31z" />
    <glyph glyph-name="question" unicode="?" horiz-adv-x="446" 
d="M20 626l144 174h97l164 -226l-138 -174l-31 -149l-82 -5l-31 200l175 144l-108 87l-113 -82zM148 179h149l-41 -179l-87 31z" />
    <glyph glyph-name="A" unicode="A" horiz-adv-x="524" 
d="M426 800l74 -413l-83 -387h-95l12 239l-119 -23l9 -213h-80l-120 396l90 384zM303 371q-11 48 -22 102t-11 70q-4 -28 -15 -85t-18 -87h66z" />
    <glyph glyph-name="B" unicode="B" horiz-adv-x="613" 
d="M160 800h248l154 -205l-93 -172l116 -195l-230 -222l-184 -6l-143 550zM241 642l6 -178l115 69zM264 333l6 -201l120 109z" />
    <glyph glyph-name="C" unicode="C" horiz-adv-x="555" 
d="M414 466l-115 104l-109 -165l158 -284l116 147l65 -87l-170 -176l-87 -5l-247 444l214 356l126 -11l164 -241z" />
    <glyph glyph-name="D" unicode="D" horiz-adv-x="563" 
d="M135 800l224 -6l179 -328l-184 -466l-219 6l-109 725zM193 627l47 -485l108 364l-46 116z" />
    <glyph glyph-name="E" unicode="E" horiz-adv-x="443" 
d="M394 673l-155 -23l-58 -149l202 -23v-75l-184 -35l46 -230l167 -11l11 -92l-253 -35l-150 535l92 265l288 -52z" />
    <glyph glyph-name="F" unicode="F" horiz-adv-x="418" 
d="M393 673l-155 -23l-58 -149l202 -23v-75l-185 -35l58 -351l-86 -17l-150 535l92 265l288 -52z" />
    <glyph glyph-name="G" unicode="G" horiz-adv-x="567" 
d="M415 466l-115 104l-110 -165l159 -284l62 79l-13 167l112 -4l31 -341l-84 -20l-16 87l-81 -84l-88 -5l-246 444l213 356l126 -11l165 -241z" />
    <glyph glyph-name="H" unicode="H" horiz-adv-x="514" 
d="M411 777l80 -285l-63 -492h-128l29 326h-138l23 -326h-99l-92 469l58 308l116 23l17 -310h86v287h111z" />
    <glyph glyph-name="I" unicode="I" horiz-adv-x="220" 
d="M10 580l183 17l-33 -474l50 -95l-116 -28l-60 112zM201 800l-33 -180h-113l-34 174z" />
    <glyph glyph-name="J" unicode="J" horiz-adv-x="343" 
d="M274 800l53 -382l-58 -418l-171 53l-82 100l35 94l123 -82l-47 626z" />
    <glyph glyph-name="K" unicode="K" horiz-adv-x="573" 
d="M204 800l16 -290l151 290h121l-115 -351l170 -432l-158 -5l-150 278l-19 -284l-102 -6l-92 564l52 230z" />
    <glyph glyph-name="L" unicode="L" horiz-adv-x="496" 
d="M473 166l-6 -114l-328 -52l-116 563l104 237l159 -12l-40 -599z" />
    <glyph glyph-name="M" unicode="M" horiz-adv-x="868" 
d="M95 22l-56 745l139 22l28 -156l139 167l156 -17l16 -172l122 172l189 -55l-44 -728l-106 17l-5 400l-100 89l-61 -62l-39 -416h-89l22 439l-83 116l-89 -50l-45 -505z" />
    <glyph glyph-name="N" unicode="N" horiz-adv-x="585" 
d="M84 0l-57 766l142 23l29 -160l143 171l160 -17l57 -183l-86 -594h-91l23 451l-86 120l-91 -51l-46 -520z" />
    <glyph glyph-name="O" unicode="O" horiz-adv-x="561" 
d="M365 800l170 -263l-115 -532l-241 -5l-154 521l137 257zM267 504l-61 -175l77 -225l66 225z" />
    <glyph glyph-name="P" unicode="P" horiz-adv-x="507" 
d="M154 800v-78l155 68l175 -266l-194 -238l-88 82l-4 -252l97 -38l-68 -78l-126 48l-78 718zM265 611l-72 -102l77 -126l63 87z" />
    <glyph glyph-name="Q" unicode="Q" horiz-adv-x="521" 
d="M340 800l152 -281l-100 -432l98 -27l-36 -126l-97 73l-179 -17l-160 514l133 276zM260 489l-56 -163l71 -239l61 239z" />
    <glyph glyph-name="R" unicode="R" horiz-adv-x="555" 
d="M147 0l-122 780l128 14l46 -108l154 114l177 -154l-68 -103l-80 74l-137 -63l-6 -548z" />
    <glyph glyph-name="S" unicode="S" horiz-adv-x="519" 
d="M174 800h166l156 -217l-122 -44l-67 100l-89 -11l-17 -122l261 -128l-111 -378l-161 6l-161 172l106 61l105 -106l56 150l-212 97l-60 298z" />
    <glyph glyph-name="T" unicode="T" horiz-adv-x="559" 
d="M308 624l16 -619l-101 -5l-68 593h-109l-21 118l498 89l10 -155z" />
    <glyph glyph-name="U" unicode="U" horiz-adv-x="564" 
d="M213 783l-22 -331l77 -264h45l77 259l-11 347l99 6l61 -353l-144 -447h-204l-165 436l99 353z" />
    <glyph glyph-name="V" unicode="V" horiz-adv-x="546" 
d="M522 800l-120 -761l-207 -39l-170 800h121l119 -447q19 46 39 93q30 93 58 189t46 159z" />
    <glyph glyph-name="W" unicode="W" horiz-adv-x="929" 
d="M412 0h-204l-166 436l100 353l88 -6l-22 -331l77 -264h44l77 259l11 336l100 6l34 -356l65 -245h44l77 259l-11 347l100 6l60 -353l-143 -447h-204l-68 180z" />
    <glyph glyph-name="X" unicode="X" horiz-adv-x="542" 
d="M377 421l140 -399l-131 -17q-37 66 -74 133.5t-40 79.5q-3 -12 -42 -80.5t-79 -137.5l-126 22l142 399l-114 346l148 33l71 -192l62 187l125 -17z" />
    <glyph glyph-name="Y" unicode="Y" horiz-adv-x="468" 
d="M324 307l-64 -307h-118l17 324l-138 476l160 -12l50 -212q19 47 38 95q11 37 35 117h142z" />
    <glyph glyph-name="Z" unicode="Z" horiz-adv-x="523" 
d="M482 113v-113l-406 6l-52 140l231 477h-205l-12 113l339 64l122 -138l-238 -497z" />
    <glyph glyph-name="a" unicode="a" horiz-adv-x="524" 
d="M426 800l74 -413l-83 -387h-95l12 239l-119 -23l9 -213h-80l-120 396l90 384zM303 371q-11 48 -22 102t-11 70q-4 -28 -15 -85t-18 -87h66z" />
    <glyph glyph-name="b" unicode="b" horiz-adv-x="613" 
d="M160 800h248l154 -205l-93 -172l116 -195l-230 -222l-184 -6l-143 550zM241 642l6 -178l115 69zM264 333l6 -201l120 109z" />
    <glyph glyph-name="c" unicode="c" horiz-adv-x="555" 
d="M414 466l-115 104l-109 -165l158 -284l116 147l65 -87l-170 -176l-87 -5l-247 444l214 356l126 -11l164 -241z" />
    <glyph glyph-name="d" unicode="d" horiz-adv-x="563" 
d="M135 800l224 -6l179 -328l-184 -466l-219 6l-109 725zM193 627l47 -485l108 364l-46 116z" />
    <glyph glyph-name="e" unicode="e" horiz-adv-x="443" 
d="M394 673l-155 -23l-58 -149l202 -23v-75l-184 -35l46 -230l167 -11l11 -92l-253 -35l-150 535l92 265l288 -52z" />
    <glyph glyph-name="f" unicode="f" horiz-adv-x="418" 
d="M393 673l-155 -23l-58 -149l202 -23v-75l-185 -35l58 -351l-86 -17l-150 535l92 265l288 -52z" />
    <glyph glyph-name="g" unicode="g" horiz-adv-x="567" 
d="M415 466l-115 104l-110 -165l159 -284l62 79l-13 167l112 -4l31 -341l-84 -20l-16 87l-81 -84l-88 -5l-246 444l213 356l126 -11l165 -241z" />
    <glyph glyph-name="h" unicode="h" horiz-adv-x="514" 
d="M411 777l80 -285l-63 -492h-128l29 326h-138l23 -326h-99l-92 469l58 308l116 23l17 -310h86v287h111z" />
    <glyph glyph-name="i" unicode="i" horiz-adv-x="220" 
d="M10 580l183 17l-33 -474l50 -95l-116 -28l-60 112zM201 800l-33 -180h-113l-34 174z" />
    <glyph glyph-name="j" unicode="j" horiz-adv-x="343" 
d="M274 800l53 -382l-58 -418l-171 53l-82 100l35 94l123 -82l-47 626z" />
    <glyph glyph-name="k" unicode="k" horiz-adv-x="573" 
d="M204 800l16 -290l151 290h121l-115 -351l170 -432l-158 -5l-150 278l-19 -284l-102 -6l-92 564l52 230z" />
    <glyph glyph-name="l" unicode="l" horiz-adv-x="496" 
d="M473 166l-6 -114l-328 -52l-116 563l104 237l159 -12l-40 -599z" />
    <glyph glyph-name="m" unicode="m" horiz-adv-x="868" 
d="M95 22l-56 745l139 22l28 -156l139 167l156 -17l16 -172l122 172l189 -55l-44 -728l-106 17l-5 400l-100 89l-61 -62l-39 -416h-89l22 439l-83 116l-89 -50l-45 -505z" />
    <glyph glyph-name="n" unicode="n" horiz-adv-x="585" 
d="M84 0l-57 766l142 23l29 -160l143 171l160 -17l57 -183l-86 -594h-91l23 451l-86 120l-91 -51l-46 -520z" />
    <glyph glyph-name="o" unicode="o" horiz-adv-x="561" 
d="M365 800l170 -263l-115 -532l-241 -5l-154 521l137 257zM267 504l-61 -175l77 -225l66 225z" />
    <glyph glyph-name="p" unicode="p" horiz-adv-x="507" 
d="M154 800v-78l155 68l175 -266l-194 -238l-88 82l-4 -252l97 -38l-68 -78l-126 48l-78 718zM265 611l-72 -102l77 -126l63 87z" />
    <glyph glyph-name="q" unicode="q" horiz-adv-x="521" 
d="M340 800l152 -281l-100 -432l98 -27l-36 -126l-97 73l-179 -17l-160 514l133 276zM260 489l-56 -163l71 -239l61 239z" />
    <glyph glyph-name="r" unicode="r" horiz-adv-x="555" 
d="M147 0l-122 780l128 14l46 -108l154 114l177 -154l-68 -103l-80 74l-137 -63l-6 -548z" />
    <glyph glyph-name="s" unicode="s" horiz-adv-x="519" 
d="M174 800h166l156 -217l-122 -44l-67 100l-89 -11l-17 -122l261 -128l-111 -378l-161 6l-161 172l106 61l105 -106l56 150l-212 97l-60 298z" />
    <glyph glyph-name="t" unicode="t" horiz-adv-x="559" 
d="M308 624l16 -619l-101 -5l-68 593h-109l-21 118l498 89l10 -155z" />
    <glyph glyph-name="u" unicode="u" horiz-adv-x="564" 
d="M213 783l-22 -331l77 -264h45l77 259l-11 347l99 6l61 -353l-144 -447h-204l-165 436l99 353z" />
    <glyph glyph-name="v" unicode="v" horiz-adv-x="546" 
d="M522 800l-120 -761l-207 -39l-170 800h121l119 -447q19 46 39 93q30 93 58 189t46 159z" />
    <glyph glyph-name="w" unicode="w" horiz-adv-x="929" 
d="M412 0h-204l-166 436l100 353l88 -6l-22 -331l77 -264h44l77 259l11 336l100 6l34 -356l65 -245h44l77 259l-11 347l100 6l60 -353l-143 -447h-204l-68 180z" />
    <glyph glyph-name="x" unicode="x" horiz-adv-x="542" 
d="M377 421l140 -399l-131 -17q-37 66 -74 133.5t-40 79.5q-3 -12 -42 -80.5t-79 -137.5l-126 22l142 399l-114 346l148 33l71 -192l62 187l125 -17z" />
    <glyph glyph-name="y" unicode="y" horiz-adv-x="468" 
d="M324 307l-64 -307h-118l17 324l-138 476l160 -12l50 -212q19 47 38 95q11 37 35 117h142z" />
    <glyph glyph-name="z" unicode="z" horiz-adv-x="523" 
d="M482 113v-113l-406 6l-52 140l231 477h-205l-12 113l339 64l122 -138l-238 -497z" />
    <glyph glyph-name="quotedblleft" unicode="&#x201c;" horiz-adv-x="450" 
d="M418 761l4 -130l-58 -31l-5 -132l-113 269zM202 755l4 -130l-58 -31l-5 -132l-113 269z" />
    <glyph glyph-name="quotedblright" unicode="&#x201d;" horiz-adv-x="450" 
d="M36 773l172 -24l-113 -269l-5 132l-58 31zM252 767l172 -24l-113 -269l-5 132l-58 31z" />
    <glyph glyph-name="quoteleft" unicode="&#x2018;" horiz-adv-x="234" 
d="M202 755l4 -130l-58 -31l-5 -132l-113 269z" />
    <glyph glyph-name="quoteright" unicode="&#x2019;" horiz-adv-x="228" 
d="M36 773l172 -24l-113 -269l-5 132l-58 31z" />
  </font>
</defs>
</svg>
